<?xml version="1.0" encoding="UTF-8" standalone="no"?>
<!-- Generator: Adobe Illustrator 19.0.0, SVG Export Plug-In . SVG Version: 6.00 Build 0)  -->

<svg
   xmlns:dc="http://purl.org/dc/elements/1.1/"
   xmlns:cc="http://creativecommons.org/ns#"
   xmlns:rdf="http://www.w3.org/1999/02/22-rdf-syntax-ns#"
   xmlns:svg="http://www.w3.org/2000/svg"
   xmlns="http://www.w3.org/2000/svg"
   xmlns:sodipodi="http://sodipodi.sourceforge.net/DTD/sodipodi-0.dtd"
   xmlns:inkscape="http://www.inkscape.org/namespaces/inkscape"
   version="1.1"
   id="Capa_1"
   x="0px"
   y="0px"
   viewBox="0 0 511.992 511.992"
   style="enable-background:new 0 0 511.992 511.992;"
   xml:space="preserve"
   sodipodi:docname="eye.svg"
   inkscape:version="0.92.4 (5da689c313, 2019-01-14)"><metadata
   id="metadata49"><rdf:RDF><cc:Work
       rdf:about=""><dc:format>image/svg+xml</dc:format><dc:type
         rdf:resource="http://purl.org/dc/dcmitype/StillImage" /></cc:Work></rdf:RDF></metadata><defs
   id="defs47" /><sodipodi:namedview
   pagecolor="#ffffff"
   bordercolor="#666666"
   borderopacity="1"
   objecttolerance="10"
   gridtolerance="10"
   guidetolerance="10"
   inkscape:pageopacity="0"
   inkscape:pageshadow="2"
   inkscape:window-width="1920"
   inkscape:window-height="1008"
   id="namedview45"
   showgrid="false"
   inkscape:zoom="0.4609447"
   inkscape:cx="255.996"
   inkscape:cy="255.996"
   inkscape:window-x="0"
   inkscape:window-y="34"
   inkscape:window-maximized="1"
   inkscape:current-layer="Capa_1" />
<g
   id="g6"
   style="fill:#888888;fill-opacity:1">
	<g
   id="g4"
   style="fill:#888888;fill-opacity:1">
		<path
   d="M510.096,249.937c-4.032-5.867-100.928-143.275-254.101-143.275C124.56,106.662,7.44,243.281,2.512,249.105    c-3.349,3.968-3.349,9.792,0,13.781C7.44,268.71,124.56,405.329,255.995,405.329S504.549,268.71,509.477,262.886    C512.571,259.217,512.848,253.905,510.096,249.937z M255.995,383.996c-105.365,0-205.547-100.48-230.997-128    c25.408-27.541,125.483-128,230.997-128c123.285,0,210.304,100.331,231.552,127.424    C463.013,282.065,362.256,383.996,255.995,383.996z"
   id="path2"
   style="fill:#888888;fill-opacity:1" />
	</g>
</g>
<g
   id="g12"
   style="fill:#888888;fill-opacity:1">
	<g
   id="g10"
   style="fill:#888888;fill-opacity:1">
		<path
   d="M255.995,170.662c-47.061,0-85.333,38.272-85.333,85.333s38.272,85.333,85.333,85.333s85.333-38.272,85.333-85.333    S303.056,170.662,255.995,170.662z M255.995,319.996c-35.285,0-64-28.715-64-64s28.715-64,64-64s64,28.715,64,64    S291.28,319.996,255.995,319.996z"
   id="path8"
   style="fill:#888888;fill-opacity:1" />
	</g>
</g>
<g
   id="g14"
   style="fill:#888888;fill-opacity:1">
</g>
<g
   id="g16"
   style="fill:#888888;fill-opacity:1">
</g>
<g
   id="g18"
   style="fill:#888888;fill-opacity:1">
</g>
<g
   id="g20"
   style="fill:#888888;fill-opacity:1">
</g>
<g
   id="g22"
   style="fill:#888888;fill-opacity:1">
</g>
<g
   id="g24"
   style="fill:#888888;fill-opacity:1">
</g>
<g
   id="g26"
   style="fill:#888888;fill-opacity:1">
</g>
<g
   id="g28"
   style="fill:#888888;fill-opacity:1">
</g>
<g
   id="g30"
   style="fill:#888888;fill-opacity:1">
</g>
<g
   id="g32"
   style="fill:#888888;fill-opacity:1">
</g>
<g
   id="g34"
   style="fill:#888888;fill-opacity:1">
</g>
<g
   id="g36"
   style="fill:#888888;fill-opacity:1">
</g>
<g
   id="g38"
   style="fill:#888888;fill-opacity:1">
</g>
<g
   id="g40"
   style="fill:#888888;fill-opacity:1">
</g>
<g
   id="g42"
   style="fill:#888888;fill-opacity:1">
</g>
</svg>